<?xml version="1.0" standalone="no"?>
<!DOCTYPE svg PUBLIC "-//W3C//DTD SVG 20010904//EN"
 "http://www.w3.org/TR/2001/REC-SVG-20010904/DTD/svg10.dtd">
<svg version="1.0" xmlns="http://www.w3.org/2000/svg"
 width="1231.000000pt" height="656.000000pt" viewBox="0 0 1231.000000 656.000000"
 preserveAspectRatio="xMidYMid meet">

<g transform="translate(0.000000,656.000000) scale(0.100000,-0.100000)"
fill="#000000" stroke="none">
<path d="M5420 6553 c-156 -15 -336 -49 -472 -89 -281 -82 -597 -249 -806
-424 l-72 -60 -2000 0 -2000 0 0 -575 0 -575 1156 0 c977 0 1155 -2 1151 -14
-3 -7 -539 -925 -1191 -2039 l-1186 -2025 0 -376 0 -376 6155 0 6155 0 0 580
0 580 -5225 0 c-2874 0 -5225 2 -5225 3 0 4 1420 2430 1425 2435 1 2 10 -32
20 -75 46 -210 171 -515 285 -698 220 -352 536 -645 910 -844 272 -144 616
-247 960 -287 174 -20 485 -15 649 11 757 118 1384 574 1738 1264 l53 104 16
-39 c98 -237 263 -488 446 -679 329 -344 764 -563 1278 -642 164 -26 583 -25
765 0 794 112 1288 411 1711 1037 96 142 176 280 171 294 -5 11 -835 468 -862
474 -7 2 -38 -39 -71 -95 -204 -341 -427 -533 -734 -631 -172 -55 -255 -67
-465 -66 -174 0 -198 2 -289 27 -379 102 -669 400 -811 831 -21 64 -36 118
-33 121 3 3 734 76 1624 161 890 85 1620 156 1622 158 2 2 8 75 13 163 41 688
-157 1275 -576 1711 -187 195 -354 317 -590 432 -344 168 -683 238 -1100 227
-291 -8 -494 -43 -745 -129 -552 -190 -1025 -607 -1296 -1142 l-56 -112 -50
95 c-375 715 -1075 1175 -1938 1275 -121 14 -408 19 -510 9z m4903 -1017 c267
-79 469 -263 572 -520 34 -85 71 -233 61 -243 -7 -7 -1948 -194 -1954 -188 -6
6 29 166 55 244 119 365 352 601 688 696 131 37 194 44 350 40 115 -2 156 -8
228 -29z m-4308 -111 c175 -46 339 -135 465 -251 133 -124 259 -334 314 -528
104 -358 58 -788 -124 -1161 -179 -370 -473 -613 -830 -687 -134 -28 -333 -21
-475 17 -449 118 -752 480 -825 984 -18 122 -7 408 20 536 126 592 506 1018
989 1110 121 23 341 14 466 -20z"/>
</g>
</svg>
